# xmcd
#
# Track frame offsets:
# 150
# 14494
# 27362
# 40764
# 53867
# 67751
# 79625
# 94426
# 105583
# 116672
# 130279
# 145570
#
# Disc length: 2086 seconds
#
# Revision: 0
# Processed by: cddbd v1.5.2PL0 Copyright (c) Steve Scherf et al.
# Submitted via: Audion 3.0.2 (http://www.panic.com/audion/)
#
DISCID=9908240c
DTITLE=Gold Heart - My Sisters And Me
DYEAR=1900
DGENRE=
TTITLE0=Grin and Bear It
TTITLE1=Sing A Little Louder
TTITLE2=Amidst Life's Storm
TTITLE3=Chasing Lightening Bugs
TTITLE4=Miles
TTITLE5=Never Be Through With Lovin' You
TTITLE6=Things
TTITLE7=Heavenly Home
TTITLE8=Shining Down On Me
TTITLE9=Sister
TTITLE10=You Know How
TTITLE11=Ride Of Your Life
EXTD=
EXTT0=
EXTT1=
EXTT2=
EXTT3=
EXTT4=
EXTT5=
EXTT6=
EXTT7=
EXTT8=
EXTT9=
EXTT10=
EXTT11=
PLAYORDER=
